<svg width="261" height="570" viewBox="0 0 261 570" fill="none" xmlns="http://www.w3.org/2000/svg">
<path d="M172.757 374.304C124.457 363.241 76.4183 393.477 65.3216 441.926C54.225 490.374 84.3143 538.505 132.615 549.567C180.916 560.63 228.954 530.394 240.051 481.946C251.147 433.497 221.058 385.367 172.757 374.304Z" fill="#43A1C3"/>
<path d="M133.74 427.937C139.321 429.215 142.922 434.712 141.596 440.503C140.314 446.1 134.635 449.675 129.054 448.397C123.474 447.119 119.872 441.621 121.198 435.831C122.673 430.277 128.16 426.658 133.74 427.937Z" fill="#343434"/>
<path d="M171.68 498.383L120.301 486.615C114.72 485.336 111.118 479.839 112.445 474.049C113.727 468.451 119.406 464.876 124.987 466.154L176.366 477.922C181.947 479.2 185.504 484.891 184.222 490.488C182.896 496.279 177.261 499.661 171.68 498.383Z" fill="#343434"/>
<path d="M180.478 459.972C174.898 458.693 171.296 453.196 172.622 447.405C173.904 441.808 179.391 438.189 184.972 439.467C190.552 440.745 194.154 446.243 192.828 452.033C191.694 457.868 186.059 461.25 180.478 459.972Z" fill="#343434"/>
<path d="M206.06 0.469553L120.99 10.6635C118.834 10.9218 117.086 12.9262 117.369 15.2856L127.099 96.4869L46.3414 106.164C44.1852 106.422 42.4372 108.427 42.7199 110.786C48.6099 159.939 93.4029 195.257 142.406 189.385C191.41 183.513 226.59 138.612 220.7 89.4588L210.475 4.12866C210.192 1.76931 208.216 0.211183 206.06 0.469553Z" fill="#FF6F42"/>
<path d="M171.817 182.836L87.8434 199.843C39.4715 209.639 8.01834 257.226 17.8447 305.745C27.6711 354.265 75.1609 385.864 123.533 376.067L207.506 359.061C209.635 358.63 211.216 356.491 210.744 354.162L176.706 186.089C176.234 183.76 174.139 182.366 171.817 182.836Z" fill="#FFDC55"/>
</svg>
