<svg width="190" height="191" viewBox="0 0 190 191" fill="none" xmlns="http://www.w3.org/2000/svg">
<path d="M94.9405 0C42.4514 0 0 42.5813 0 95.231C0 147.881 42.4514 190.462 94.9405 190.462C147.43 190.462 189.881 147.881 189.881 95.231C189.881 42.5813 147.43 0 94.9405 0Z" fill="#FFDC55"/>
<path d="M67.3367 64.6057C73.4012 64.6057 78.4201 69.4302 78.4201 75.723C78.4201 81.806 73.4012 86.8403 67.3367 86.8403C61.2723 86.8403 56.2534 82.0158 56.2534 75.723C56.4625 69.64 61.2723 64.6057 67.3367 64.6057Z" fill="#343434"/>
<path d="M123.172 128.373H67.3368C61.2723 128.373 56.2534 123.548 56.2534 117.255C56.2534 111.172 61.2723 106.138 67.3368 106.138H123.172C129.236 106.138 134.255 111.172 134.255 117.255C134.255 123.548 129.236 128.373 123.172 128.373Z" fill="#343434"/>
<path d="M123.172 86.6304C117.107 86.6304 112.088 81.806 112.088 75.5132C112.088 69.4301 116.898 64.3959 122.963 64.3959C129.027 64.3959 134.046 69.2204 134.046 75.5132C134.255 81.806 129.236 86.6304 123.172 86.6304Z" fill="#343434"/>
</svg>
