<svg width="510" height="275" viewBox="0 0 510 275" fill="none" xmlns="http://www.w3.org/2000/svg">
<path d="M357.287 22.1869C297.588 34.2442 259.086 92.4264 271.18 152.309C283.274 212.191 341.339 250.87 401.038 238.813C460.738 226.756 499.24 168.573 487.145 108.691C475.051 48.8089 416.987 10.1297 357.287 22.1869Z" fill="#FFDC55"/>
<path d="M296.355 110.971C303.253 109.578 310.07 113.912 311.515 121.07C312.912 127.988 308.36 134.867 301.463 136.26C294.565 137.653 287.749 133.319 286.303 126.162C285.144 119.195 289.458 112.364 296.355 110.971Z" fill="#343434"/>
<path d="M364.92 123.196C358.022 124.589 351.206 120.254 349.76 113.097C348.363 106.178 352.677 99.3478 359.575 97.9547C366.472 96.5616 373.289 100.896 374.734 108.053C376.418 115.162 371.818 121.803 364.92 123.196Z" fill="#343434"/>
<path d="M351.355 166.504C357.806 155.509 371.327 149.208 371.327 149.208M369.545 140.386C369.069 148.133 374.079 152.733 379.376 153.703" stroke="black" stroke-width="9" stroke-linecap="round"/>
<path d="M290.806 108.047C297.286 112.35 306.707 116.058 308.757 111.053" stroke="#343434" stroke-width="9" stroke-linecap="round"/>
<path d="M365.302 93.0018C359.71 99.6337 350.486 106.999 345.98 103.407" stroke="#343434" stroke-width="9" stroke-linecap="round"/>
<path d="M329.815 182.784C308.031 190.716 295.417 214.62 305.061 238.816C314.706 263.011 347.414 270.858 365.913 260.145C388.013 247.347 392.2 207.088 349.102 200.13C360.681 198.867 371.337 198.551 368.047 189.427C363.912 177.958 343.167 177.923 329.815 182.784Z" fill="#E9C94F"/>
<path d="M4.43233 143.186C2.25421 136.706 7.07498 130 13.9112 130H174.485C178.78 130 182.595 132.743 183.964 136.814L217.241 235.814C219.419 242.294 214.598 249 207.762 249H47.1885C42.8934 249 39.0781 246.257 37.7096 242.186L4.43233 143.186Z" fill="#343434"/>
<ellipse cx="104.337" cy="189.5" rx="13" ry="15.5" transform="rotate(-9.48094 104.337 189.5)" fill="#FFF7ED"/>
<rect x="41" y="254" width="247" height="14" rx="7" fill="#343434"/>
</svg>
