<svg width="12" height="12" viewBox="0 0 12 12" fill="none" xmlns="http://www.w3.org/2000/svg">
<path d="M5.9817 0C2.67463 0 0 2.68282 0 6C0 9.31718 2.67463 12 5.9817 12C9.28876 12 11.9634 9.31718 11.9634 6C11.9634 2.68282 9.28876 0 5.9817 0Z" fill="#43A1C3"/>
<path d="M4.24249 4.07031C4.62458 4.07031 4.9408 4.37428 4.9408 4.77075C4.9408 5.15401 4.62458 5.47119 4.24249 5.47119C3.8604 5.47119 3.54419 5.16723 3.54419 4.77075C3.55736 4.38749 3.8604 4.07031 4.24249 4.07031Z" fill="#343434"/>
<path d="M7.76036 8.08789H4.24249C3.8604 8.08789 3.54419 7.78393 3.54419 7.38745C3.54419 7.00419 3.8604 6.68701 4.24249 6.68701H7.76036C8.14245 6.68701 8.45866 7.00419 8.45866 7.38745C8.45866 7.78393 8.14245 8.08789 7.76036 8.08789Z" fill="#343434"/>
<path d="M7.76032 5.45801C7.37823 5.45801 7.06201 5.15405 7.06201 4.75757C7.06201 4.37431 7.36505 4.05713 7.74714 4.05713C8.12923 4.05713 8.44545 4.36109 8.44545 4.75757C8.45862 5.15405 8.14241 5.45801 7.76032 5.45801Z" fill="#343434"/>
</svg>
